<mxfile host="app.diagrams.net" modified="2023-04-03T12:27:03.347Z" agent="Mozilla/5.0 (Windows NT 10.0; Win64; x64) AppleWebKit/537.36 (KHTML, like Gecko) Chrome/111.0.0.0 Safari/537.36" etag="tZCngc_rnMG8s6EVrhBa" version="21.1.2" type="device">
  <diagram id="lPXEBotelq2ea-Xryi1q" name="Page-1">
    <mxGraphModel dx="882" dy="1587" grid="1" gridSize="10" guides="1" tooltips="1" connect="1" arrows="1" fold="1" page="1" pageScale="1" pageWidth="850" pageHeight="1100" math="0" shadow="0">
      <root>
        <mxCell id="0" />
        <mxCell id="1" parent="0" />
        <mxCell id="dsy365mJp7_EP_dkVUZ7-1" value="" style="rounded=0;whiteSpace=wrap;html=1;fillColor=#dae8fc;strokeColor=#6c8ebf;" parent="1" vertex="1">
          <mxGeometry x="100" y="-130" width="630" height="760" as="geometry" />
        </mxCell>
        <mxCell id="dsy365mJp7_EP_dkVUZ7-2" value="" style="rounded=0;whiteSpace=wrap;html=1;fillColor=#1ba1e2;fontColor=#ffffff;strokeColor=#006EAF;" parent="1" vertex="1">
          <mxGeometry x="100" y="-240" width="630" height="110" as="geometry" />
        </mxCell>
        <mxCell id="dsy365mJp7_EP_dkVUZ7-3" value="" style="rounded=1;whiteSpace=wrap;html=1;" parent="1" vertex="1">
          <mxGeometry x="550" y="-60" width="40" height="30" as="geometry" />
        </mxCell>
        <mxCell id="dsy365mJp7_EP_dkVUZ7-4" value="" style="html=1;verticalLabelPosition=bottom;align=center;labelBackgroundColor=#ffffff;verticalAlign=top;strokeWidth=2;strokeColor=#0080F0;shadow=0;dashed=0;shape=mxgraph.ios7.icons.looking_glass;" parent="1" vertex="1">
          <mxGeometry x="560" y="-55" width="20" height="20" as="geometry" />
        </mxCell>
        <mxCell id="dsy365mJp7_EP_dkVUZ7-5" value="&lt;font color=&quot;#fffcfc&quot;&gt;&lt;span style=&quot;font-size: 36px;&quot;&gt;LIBRARY&lt;/span&gt;&lt;/font&gt;" style="text;html=1;align=center;verticalAlign=middle;whiteSpace=wrap;rounded=0;" parent="1" vertex="1">
          <mxGeometry x="180" y="-200" width="450" height="30" as="geometry" />
        </mxCell>
        <mxCell id="dsy365mJp7_EP_dkVUZ7-7" value="" style="rounded=0;whiteSpace=wrap;html=1;fontSize=36;" parent="1" vertex="1">
          <mxGeometry x="170" y="-10" width="360" height="240" as="geometry" />
        </mxCell>
        <mxCell id="T6wYHMkU8se99YP4QSr7-4" value="" style="rounded=1;whiteSpace=wrap;html=1;" parent="1" vertex="1">
          <mxGeometry x="200" y="-60" width="330" height="30" as="geometry" />
        </mxCell>
        <mxCell id="T6wYHMkU8se99YP4QSr7-5" value="SEARCH" style="text;html=1;strokeColor=none;fillColor=none;align=center;verticalAlign=middle;whiteSpace=wrap;rounded=0;" parent="1" vertex="1">
          <mxGeometry x="210" y="-60" width="60" height="30" as="geometry" />
        </mxCell>
        <mxCell id="5vxAQFghF_szDNHVX80t-9" value="" style="rounded=1;whiteSpace=wrap;html=1;" parent="1" vertex="1">
          <mxGeometry x="440" y="200" width="70" height="20" as="geometry" />
        </mxCell>
        <mxCell id="5vxAQFghF_szDNHVX80t-8" value="&lt;b&gt;More info&lt;/b&gt;" style="text;html=1;strokeColor=none;fillColor=none;align=center;verticalAlign=middle;whiteSpace=wrap;rounded=0;" parent="1" vertex="1">
          <mxGeometry x="442.5" y="196.25" width="70" height="27.5" as="geometry" />
        </mxCell>
        <mxCell id="5vxAQFghF_szDNHVX80t-10" value="" style="rounded=0;whiteSpace=wrap;html=1;fontSize=36;" parent="1" vertex="1">
          <mxGeometry x="170" y="260" width="360" height="240" as="geometry" />
        </mxCell>
        <mxCell id="5vxAQFghF_szDNHVX80t-16" value="" style="rounded=1;whiteSpace=wrap;html=1;" parent="1" vertex="1">
          <mxGeometry x="440" y="470" width="70" height="20" as="geometry" />
        </mxCell>
        <mxCell id="5vxAQFghF_szDNHVX80t-22" value="" style="rounded=0;whiteSpace=wrap;html=1;fillColor=#dae8fc;strokeColor=#6c8ebf;" parent="1" vertex="1">
          <mxGeometry x="800" y="-130" width="630" height="760" as="geometry" />
        </mxCell>
        <mxCell id="5vxAQFghF_szDNHVX80t-23" value="" style="rounded=0;whiteSpace=wrap;html=1;fillColor=#1ba1e2;fontColor=#ffffff;strokeColor=#006EAF;" parent="1" vertex="1">
          <mxGeometry x="800" y="-240" width="630" height="110" as="geometry" />
        </mxCell>
        <mxCell id="5vxAQFghF_szDNHVX80t-24" value="" style="rounded=0;whiteSpace=wrap;html=1;fontSize=36;" parent="1" vertex="1">
          <mxGeometry x="820" y="-45" width="530" height="635" as="geometry" />
        </mxCell>
        <mxCell id="5vxAQFghF_szDNHVX80t-35" value="" style="rounded=1;whiteSpace=wrap;html=1;" parent="1" vertex="1">
          <mxGeometry x="1040" y="560" width="70" height="20" as="geometry" />
        </mxCell>
        <mxCell id="5vxAQFghF_szDNHVX80t-36" value="&lt;b&gt;edit&lt;/b&gt;" style="text;html=1;strokeColor=none;fillColor=none;align=center;verticalAlign=middle;whiteSpace=wrap;rounded=0;" parent="1" vertex="1">
          <mxGeometry x="1045" y="556.25" width="60" height="27.5" as="geometry" />
        </mxCell>
        <mxCell id="W0NUTXH_Gj8wTb6uk6H0-5" value="title" style="text;html=1;strokeColor=none;fillColor=none;align=center;verticalAlign=middle;whiteSpace=wrap;rounded=0;" parent="1" vertex="1">
          <mxGeometry x="180" y="10" width="60" height="30" as="geometry" />
        </mxCell>
        <mxCell id="W0NUTXH_Gj8wTb6uk6H0-7" value="&lt;h1&gt;description&lt;/h1&gt;&lt;p&gt;Lorem ipsum dolor sit amet, consectetur adipisicing elit, sed do eiusmod tempor incididunt ut labore et dolore magna aliqua.&lt;/p&gt;" style="text;html=1;strokeColor=none;fillColor=none;spacing=5;spacingTop=-20;whiteSpace=wrap;overflow=hidden;rounded=0;" parent="1" vertex="1">
          <mxGeometry x="190" y="40" width="190" height="120" as="geometry" />
        </mxCell>
        <mxCell id="W0NUTXH_Gj8wTb6uk6H0-9" value="genre" style="text;html=1;strokeColor=none;fillColor=none;align=center;verticalAlign=middle;whiteSpace=wrap;rounded=0;" parent="1" vertex="1">
          <mxGeometry x="180" y="150" width="60" height="30" as="geometry" />
        </mxCell>
        <mxCell id="W0NUTXH_Gj8wTb6uk6H0-10" value="category" style="text;html=1;strokeColor=none;fillColor=none;align=center;verticalAlign=middle;whiteSpace=wrap;rounded=0;" parent="1" vertex="1">
          <mxGeometry x="230" y="150" width="60" height="30" as="geometry" />
        </mxCell>
        <mxCell id="W0NUTXH_Gj8wTb6uk6H0-11" value="language" style="text;html=1;strokeColor=none;fillColor=none;align=center;verticalAlign=middle;whiteSpace=wrap;rounded=0;" parent="1" vertex="1">
          <mxGeometry x="290" y="150" width="60" height="30" as="geometry" />
        </mxCell>
        <mxCell id="W0NUTXH_Gj8wTb6uk6H0-12" value="release date" style="text;html=1;strokeColor=none;fillColor=none;align=center;verticalAlign=middle;whiteSpace=wrap;rounded=0;" parent="1" vertex="1">
          <mxGeometry x="344" y="155" width="60" height="30" as="geometry" />
        </mxCell>
        <mxCell id="W0NUTXH_Gj8wTb6uk6H0-13" value="&lt;b&gt;More info&lt;/b&gt;" style="text;html=1;strokeColor=none;fillColor=none;align=center;verticalAlign=middle;whiteSpace=wrap;rounded=0;" parent="1" vertex="1">
          <mxGeometry x="442.5" y="466.25" width="70" height="27.5" as="geometry" />
        </mxCell>
        <mxCell id="W0NUTXH_Gj8wTb6uk6H0-14" value="title" style="text;html=1;strokeColor=none;fillColor=none;align=center;verticalAlign=middle;whiteSpace=wrap;rounded=0;" parent="1" vertex="1">
          <mxGeometry x="180" y="280" width="60" height="30" as="geometry" />
        </mxCell>
        <mxCell id="W0NUTXH_Gj8wTb6uk6H0-15" value="&lt;h1&gt;description&lt;/h1&gt;&lt;p&gt;Lorem ipsum dolor sit amet, consectetur adipisicing elit, sed do eiusmod tempor incididunt ut labore et dolore magna aliqua.&lt;/p&gt;" style="text;html=1;strokeColor=none;fillColor=none;spacing=5;spacingTop=-20;whiteSpace=wrap;overflow=hidden;rounded=0;" parent="1" vertex="1">
          <mxGeometry x="190" y="310" width="190" height="120" as="geometry" />
        </mxCell>
        <mxCell id="W0NUTXH_Gj8wTb6uk6H0-16" value="genre" style="text;html=1;strokeColor=none;fillColor=none;align=center;verticalAlign=middle;whiteSpace=wrap;rounded=0;" parent="1" vertex="1">
          <mxGeometry x="180" y="420" width="60" height="30" as="geometry" />
        </mxCell>
        <mxCell id="W0NUTXH_Gj8wTb6uk6H0-17" value="category" style="text;html=1;strokeColor=none;fillColor=none;align=center;verticalAlign=middle;whiteSpace=wrap;rounded=0;" parent="1" vertex="1">
          <mxGeometry x="230" y="420" width="60" height="30" as="geometry" />
        </mxCell>
        <mxCell id="W0NUTXH_Gj8wTb6uk6H0-18" value="language" style="text;html=1;strokeColor=none;fillColor=none;align=center;verticalAlign=middle;whiteSpace=wrap;rounded=0;" parent="1" vertex="1">
          <mxGeometry x="290" y="420" width="60" height="30" as="geometry" />
        </mxCell>
        <mxCell id="W0NUTXH_Gj8wTb6uk6H0-19" value="release date" style="text;html=1;strokeColor=none;fillColor=none;align=center;verticalAlign=middle;whiteSpace=wrap;rounded=0;" parent="1" vertex="1">
          <mxGeometry x="344" y="425" width="60" height="30" as="geometry" />
        </mxCell>
        <mxCell id="W0NUTXH_Gj8wTb6uk6H0-20" value="&lt;font style=&quot;font-size: 23px;&quot;&gt;Title&lt;/font&gt;" style="text;html=1;strokeColor=none;fillColor=none;align=center;verticalAlign=middle;whiteSpace=wrap;rounded=0;" parent="1" vertex="1">
          <mxGeometry x="1055" y="-10" width="60" height="30" as="geometry" />
        </mxCell>
        <mxCell id="W0NUTXH_Gj8wTb6uk6H0-21" value="&lt;h1&gt;description&lt;/h1&gt;&lt;p&gt;Lorem ipsum dolor sit amet, consectetur adipisicing elit, sed do eiusmod tempor incididunt ut labore et dolore magna aliqua.&lt;/p&gt;Lorem ipsum dolor sit amet, consectetur adipisicing elit, sed do eiusmod tempor incididunt ut labore et dolore magna aliqua.Lorem ipsum dolor sit amet, consectetur adipisicing elit, sed do eiusmod tempor incididunt ut labore et dolore magna aliqua." style="text;html=1;strokeColor=none;fillColor=none;spacing=5;spacingTop=-20;whiteSpace=wrap;overflow=hidden;rounded=0;align=center;" parent="1" vertex="1">
          <mxGeometry x="920" y="65" width="330" height="245" as="geometry" />
        </mxCell>
        <mxCell id="W0NUTXH_Gj8wTb6uk6H0-22" value="&lt;font style=&quot;font-size: 15px;&quot;&gt;&lt;br&gt;author:&lt;br&gt;illustrator:&lt;br&gt;category:&lt;br&gt;genre:&lt;br&gt;language:&lt;br&gt;release date:&lt;br&gt;page count:&lt;br&gt;Price:&lt;br&gt;&lt;/font&gt;" style="text;html=1;strokeColor=none;fillColor=none;align=center;verticalAlign=middle;whiteSpace=wrap;rounded=0;fontSize=23;" parent="1" vertex="1">
          <mxGeometry x="670" y="253.75" width="460" height="240" as="geometry" />
        </mxCell>
        <mxCell id="W0NUTXH_Gj8wTb6uk6H0-24" value="&lt;font color=&quot;#fffcfc&quot;&gt;&lt;span style=&quot;font-size: 36px;&quot;&gt;LIBRARY&lt;/span&gt;&lt;/font&gt;" style="text;html=1;align=center;verticalAlign=middle;whiteSpace=wrap;rounded=0;" parent="1" vertex="1">
          <mxGeometry x="890" y="-200" width="450" height="30" as="geometry" />
        </mxCell>
        <mxCell id="7hNuFzp-GuVnh4r0ZgIA-2" value="" style="rounded=0;whiteSpace=wrap;html=1;fillColor=#dae8fc;strokeColor=#6c8ebf;" vertex="1" parent="1">
          <mxGeometry x="1495" y="-130" width="630" height="760" as="geometry" />
        </mxCell>
        <mxCell id="7hNuFzp-GuVnh4r0ZgIA-3" value="" style="rounded=0;whiteSpace=wrap;html=1;fillColor=#1ba1e2;fontColor=#ffffff;strokeColor=#006EAF;" vertex="1" parent="1">
          <mxGeometry x="1495" y="-240" width="630" height="110" as="geometry" />
        </mxCell>
        <mxCell id="7hNuFzp-GuVnh4r0ZgIA-4" value="" style="rounded=0;whiteSpace=wrap;html=1;fontSize=36;" vertex="1" parent="1">
          <mxGeometry x="1515" y="-90" width="565" height="680" as="geometry" />
        </mxCell>
        <mxCell id="7hNuFzp-GuVnh4r0ZgIA-9" value="&lt;font color=&quot;#fffcfc&quot;&gt;&lt;span style=&quot;font-size: 36px;&quot;&gt;LIBRARY&lt;/span&gt;&lt;/font&gt;" style="text;html=1;align=center;verticalAlign=middle;whiteSpace=wrap;rounded=0;" vertex="1" parent="1">
          <mxGeometry x="1585" y="-200" width="450" height="30" as="geometry" />
        </mxCell>
        <mxCell id="7hNuFzp-GuVnh4r0ZgIA-10" value="create new author&lt;br&gt;&lt;br&gt;create new genre&lt;br&gt;&lt;br&gt;create new category&lt;br&gt;&lt;br&gt;create new language" style="text;html=1;strokeColor=none;fillColor=none;align=center;verticalAlign=middle;whiteSpace=wrap;rounded=0;" vertex="1" parent="1">
          <mxGeometry x="1530" y="-60" width="150" height="100" as="geometry" />
        </mxCell>
        <mxCell id="7hNuFzp-GuVnh4r0ZgIA-11" value="" style="rounded=1;whiteSpace=wrap;html=1;" vertex="1" parent="1">
          <mxGeometry x="1557.5" y="-70" width="95" height="10" as="geometry" />
        </mxCell>
        <mxCell id="7hNuFzp-GuVnh4r0ZgIA-14" value="" style="rounded=1;whiteSpace=wrap;html=1;" vertex="1" parent="1">
          <mxGeometry x="1557.5" y="-45" width="95" height="10" as="geometry" />
        </mxCell>
        <mxCell id="7hNuFzp-GuVnh4r0ZgIA-15" value="" style="rounded=1;whiteSpace=wrap;html=1;" vertex="1" parent="1">
          <mxGeometry x="1557.5" y="-15" width="95" height="10" as="geometry" />
        </mxCell>
        <mxCell id="7hNuFzp-GuVnh4r0ZgIA-16" value="" style="rounded=1;whiteSpace=wrap;html=1;" vertex="1" parent="1">
          <mxGeometry x="1557.5" y="15" width="95" height="10" as="geometry" />
        </mxCell>
        <mxCell id="7hNuFzp-GuVnh4r0ZgIA-18" value="" style="rounded=1;whiteSpace=wrap;html=1;" vertex="1" parent="1">
          <mxGeometry x="1545" y="80" width="120" height="40" as="geometry" />
        </mxCell>
        <mxCell id="7hNuFzp-GuVnh4r0ZgIA-17" value="add new book" style="text;html=1;strokeColor=none;fillColor=none;align=center;verticalAlign=middle;whiteSpace=wrap;rounded=0;" vertex="1" parent="1">
          <mxGeometry x="1575" y="85" width="60" height="30" as="geometry" />
        </mxCell>
        <mxCell id="7hNuFzp-GuVnh4r0ZgIA-19" value="" style="rounded=0;whiteSpace=wrap;html=1;fillColor=#dae8fc;strokeColor=#6c8ebf;" vertex="1" parent="1">
          <mxGeometry x="2180" y="-130" width="630" height="760" as="geometry" />
        </mxCell>
        <mxCell id="7hNuFzp-GuVnh4r0ZgIA-20" value="" style="rounded=0;whiteSpace=wrap;html=1;fillColor=#1ba1e2;fontColor=#ffffff;strokeColor=#006EAF;" vertex="1" parent="1">
          <mxGeometry x="2180" y="-240" width="630" height="110" as="geometry" />
        </mxCell>
        <mxCell id="7hNuFzp-GuVnh4r0ZgIA-21" value="" style="rounded=0;whiteSpace=wrap;html=1;fontSize=36;" vertex="1" parent="1">
          <mxGeometry x="2200" y="-90" width="565" height="680" as="geometry" />
        </mxCell>
        <mxCell id="7hNuFzp-GuVnh4r0ZgIA-22" value="&lt;font color=&quot;#fffcfc&quot;&gt;&lt;span style=&quot;font-size: 36px;&quot;&gt;LIBRARY&lt;/span&gt;&lt;/font&gt;" style="text;html=1;align=center;verticalAlign=middle;whiteSpace=wrap;rounded=0;" vertex="1" parent="1">
          <mxGeometry x="2270" y="-200" width="450" height="30" as="geometry" />
        </mxCell>
        <mxCell id="7hNuFzp-GuVnh4r0ZgIA-23" value="title&lt;br&gt;&lt;br&gt;description&lt;br&gt;&lt;br&gt;author&lt;br&gt;&lt;br&gt;illustrator" style="text;html=1;strokeColor=none;fillColor=none;align=center;verticalAlign=middle;whiteSpace=wrap;rounded=0;" vertex="1" parent="1">
          <mxGeometry x="2380" y="-15" width="150" height="100" as="geometry" />
        </mxCell>
        <mxCell id="7hNuFzp-GuVnh4r0ZgIA-25" value="" style="rounded=1;whiteSpace=wrap;html=1;" vertex="1" parent="1">
          <mxGeometry x="2407.5" width="95" height="10" as="geometry" />
        </mxCell>
        <mxCell id="7hNuFzp-GuVnh4r0ZgIA-26" value="" style="rounded=1;whiteSpace=wrap;html=1;" vertex="1" parent="1">
          <mxGeometry x="2407.5" y="30" width="95" height="10" as="geometry" />
        </mxCell>
        <mxCell id="7hNuFzp-GuVnh4r0ZgIA-27" value="" style="rounded=1;whiteSpace=wrap;html=1;" vertex="1" parent="1">
          <mxGeometry x="2407.5" y="60" width="95" height="10" as="geometry" />
        </mxCell>
        <mxCell id="7hNuFzp-GuVnh4r0ZgIA-36" value="category&lt;br&gt;&lt;br&gt;genre&lt;br&gt;&lt;br&gt;language&lt;br&gt;&lt;br&gt;release date" style="text;html=1;strokeColor=none;fillColor=none;align=center;verticalAlign=middle;whiteSpace=wrap;rounded=0;" vertex="1" parent="1">
          <mxGeometry x="2380" y="100" width="150" height="100" as="geometry" />
        </mxCell>
        <mxCell id="7hNuFzp-GuVnh4r0ZgIA-37" value="" style="rounded=1;whiteSpace=wrap;html=1;" vertex="1" parent="1">
          <mxGeometry x="2407.5" y="90" width="95" height="10" as="geometry" />
        </mxCell>
        <mxCell id="7hNuFzp-GuVnh4r0ZgIA-38" value="" style="rounded=1;whiteSpace=wrap;html=1;" vertex="1" parent="1">
          <mxGeometry x="2407.5" y="115" width="95" height="10" as="geometry" />
        </mxCell>
        <mxCell id="7hNuFzp-GuVnh4r0ZgIA-39" value="" style="rounded=1;whiteSpace=wrap;html=1;" vertex="1" parent="1">
          <mxGeometry x="2407.5" y="145" width="95" height="10" as="geometry" />
        </mxCell>
        <mxCell id="7hNuFzp-GuVnh4r0ZgIA-40" value="" style="rounded=1;whiteSpace=wrap;html=1;" vertex="1" parent="1">
          <mxGeometry x="2407.5" y="175" width="95" height="10" as="geometry" />
        </mxCell>
        <mxCell id="7hNuFzp-GuVnh4r0ZgIA-41" value="publisher&lt;br&gt;&lt;br&gt;page amount&lt;br&gt;&lt;br&gt;price&lt;br&gt;&lt;br&gt;image" style="text;html=1;strokeColor=none;fillColor=none;align=center;verticalAlign=middle;whiteSpace=wrap;rounded=0;" vertex="1" parent="1">
          <mxGeometry x="2380" y="210" width="150" height="100" as="geometry" />
        </mxCell>
        <mxCell id="7hNuFzp-GuVnh4r0ZgIA-42" value="" style="rounded=1;whiteSpace=wrap;html=1;" vertex="1" parent="1">
          <mxGeometry x="2407.5" y="200" width="95" height="10" as="geometry" />
        </mxCell>
        <mxCell id="7hNuFzp-GuVnh4r0ZgIA-43" value="" style="rounded=1;whiteSpace=wrap;html=1;" vertex="1" parent="1">
          <mxGeometry x="2407.5" y="225" width="95" height="10" as="geometry" />
        </mxCell>
        <mxCell id="7hNuFzp-GuVnh4r0ZgIA-44" value="" style="rounded=1;whiteSpace=wrap;html=1;" vertex="1" parent="1">
          <mxGeometry x="2407.5" y="255" width="95" height="10" as="geometry" />
        </mxCell>
        <mxCell id="7hNuFzp-GuVnh4r0ZgIA-45" value="" style="rounded=1;whiteSpace=wrap;html=1;" vertex="1" parent="1">
          <mxGeometry x="2407.5" y="285" width="95" height="10" as="geometry" />
        </mxCell>
        <mxCell id="7hNuFzp-GuVnh4r0ZgIA-46" value="" style="rounded=1;whiteSpace=wrap;html=1;" vertex="1" parent="1">
          <mxGeometry x="2435" y="310" width="40" height="30" as="geometry" />
        </mxCell>
        <mxCell id="7hNuFzp-GuVnh4r0ZgIA-47" value="file" style="text;html=1;strokeColor=none;fillColor=none;align=center;verticalAlign=middle;whiteSpace=wrap;rounded=0;" vertex="1" parent="1">
          <mxGeometry x="2425" y="310" width="60" height="30" as="geometry" />
        </mxCell>
        <mxCell id="7hNuFzp-GuVnh4r0ZgIA-48" value="" style="rounded=1;whiteSpace=wrap;html=1;" vertex="1" parent="1">
          <mxGeometry x="2395" y="360" width="120" height="20" as="geometry" />
        </mxCell>
        <mxCell id="7hNuFzp-GuVnh4r0ZgIA-49" value="create" style="text;html=1;strokeColor=none;fillColor=none;align=center;verticalAlign=middle;whiteSpace=wrap;rounded=0;" vertex="1" parent="1">
          <mxGeometry x="2425" y="355" width="60" height="30" as="geometry" />
        </mxCell>
        <mxCell id="7hNuFzp-GuVnh4r0ZgIA-51" value="" style="rounded=1;whiteSpace=wrap;html=1;" vertex="1" parent="1">
          <mxGeometry x="1545" y="185" width="100" height="26.25" as="geometry" />
        </mxCell>
        <mxCell id="7hNuFzp-GuVnh4r0ZgIA-52" value="" style="rounded=1;whiteSpace=wrap;html=1;" vertex="1" parent="1">
          <mxGeometry x="1545" y="220" width="100" height="26.25" as="geometry" />
        </mxCell>
        <mxCell id="7hNuFzp-GuVnh4r0ZgIA-53" value="" style="rounded=1;whiteSpace=wrap;html=1;" vertex="1" parent="1">
          <mxGeometry x="1545" y="255" width="100" height="26.25" as="geometry" />
        </mxCell>
        <mxCell id="7hNuFzp-GuVnh4r0ZgIA-54" value="" style="rounded=1;whiteSpace=wrap;html=1;" vertex="1" parent="1">
          <mxGeometry x="1545" y="310" width="100" height="26.25" as="geometry" />
        </mxCell>
        <mxCell id="7hNuFzp-GuVnh4r0ZgIA-55" value="" style="rounded=1;whiteSpace=wrap;html=1;" vertex="1" parent="1">
          <mxGeometry x="1545" y="345" width="100" height="26.25" as="geometry" />
        </mxCell>
        <mxCell id="7hNuFzp-GuVnh4r0ZgIA-56" value="" style="rounded=1;whiteSpace=wrap;html=1;" vertex="1" parent="1">
          <mxGeometry x="1545" y="380" width="100" height="26.25" as="geometry" />
        </mxCell>
        <mxCell id="7hNuFzp-GuVnh4r0ZgIA-57" value="" style="rounded=1;whiteSpace=wrap;html=1;" vertex="1" parent="1">
          <mxGeometry x="1545" y="440" width="100" height="26.25" as="geometry" />
        </mxCell>
        <mxCell id="7hNuFzp-GuVnh4r0ZgIA-58" value="" style="rounded=1;whiteSpace=wrap;html=1;" vertex="1" parent="1">
          <mxGeometry x="1545" y="475" width="100" height="26.25" as="geometry" />
        </mxCell>
        <mxCell id="7hNuFzp-GuVnh4r0ZgIA-59" value="" style="rounded=1;whiteSpace=wrap;html=1;" vertex="1" parent="1">
          <mxGeometry x="1545" y="510" width="100" height="26.25" as="geometry" />
        </mxCell>
        <mxCell id="7hNuFzp-GuVnh4r0ZgIA-60" value="delete&lt;br&gt;&lt;br&gt;delete&lt;br&gt;&lt;br&gt;delete" style="text;html=1;strokeColor=none;fillColor=none;align=center;verticalAlign=middle;whiteSpace=wrap;rounded=0;" vertex="1" parent="1">
          <mxGeometry x="1645" y="218.13" width="60" height="30" as="geometry" />
        </mxCell>
        <mxCell id="7hNuFzp-GuVnh4r0ZgIA-64" value="delete&lt;br&gt;&lt;br&gt;delete&lt;br&gt;&lt;br&gt;delete" style="text;html=1;strokeColor=none;fillColor=none;align=center;verticalAlign=middle;whiteSpace=wrap;rounded=0;" vertex="1" parent="1">
          <mxGeometry x="1645" y="345" width="60" height="30" as="geometry" />
        </mxCell>
        <mxCell id="7hNuFzp-GuVnh4r0ZgIA-65" value="delete&lt;br&gt;&lt;br&gt;delete&lt;br&gt;&lt;br&gt;delete" style="text;html=1;strokeColor=none;fillColor=none;align=center;verticalAlign=middle;whiteSpace=wrap;rounded=0;" vertex="1" parent="1">
          <mxGeometry x="1640" y="466.25" width="60" height="30" as="geometry" />
        </mxCell>
        <mxCell id="7hNuFzp-GuVnh4r0ZgIA-66" value="&lt;br&gt;author1&lt;br&gt;&lt;br&gt;&lt;br&gt;author 2&lt;br&gt;&lt;br&gt;author3" style="text;html=1;strokeColor=none;fillColor=none;align=center;verticalAlign=middle;whiteSpace=wrap;rounded=0;" vertex="1" parent="1">
          <mxGeometry x="1557.5" y="210" width="60" height="30" as="geometry" />
        </mxCell>
        <mxCell id="7hNuFzp-GuVnh4r0ZgIA-67" value="&lt;br&gt;genre1&lt;br&gt;&lt;br&gt;&lt;br&gt;genre 2&lt;br&gt;&lt;br&gt;genre3" style="text;html=1;strokeColor=none;fillColor=none;align=center;verticalAlign=middle;whiteSpace=wrap;rounded=0;" vertex="1" parent="1">
          <mxGeometry x="1565" y="290" width="60" height="116.25" as="geometry" />
        </mxCell>
        <mxCell id="7hNuFzp-GuVnh4r0ZgIA-68" value="&lt;br&gt;language1&lt;br&gt;&lt;br&gt;&lt;br&gt;langauge2&lt;br&gt;&lt;br&gt;language3" style="text;html=1;strokeColor=none;fillColor=none;align=center;verticalAlign=middle;whiteSpace=wrap;rounded=0;" vertex="1" parent="1">
          <mxGeometry x="1565" y="463.75" width="60" height="30" as="geometry" />
        </mxCell>
      </root>
    </mxGraphModel>
  </diagram>
</mxfile>
